<?xml version="1.0" encoding="UTF-8"?><!-- Generator: Adobe Illustrator 23.0.6, SVG Export Plug-In . SVG Version: 6.00 Build 0)  --><svg xmlns="http://www.w3.org/2000/svg" enable-background="new 0 0 500 314" id="Layer_1" version="1.1" viewBox="0 0 500 314" x="0px" xml:space="preserve" y="0px">
<g id="change1_1"><path d="m163.7 102.2h27.8l-27.8 27.8h-61.5v-40.7h-40.7l20.3 132.7v-61.3l27.8-27.8v27.8h54v112.4l-40.9 40.9h-81.8l-40.9-40.9v-204.4l40.9-40.9h81.8l40.9 40.9v33.5zm167.5-74.4l40.9 40.9v204.4l-40.9 40.9h-81.8l-40.9-40.9v-204.4l40.9-40.9h81.8zm-20.6 61.5h-40.7v163.5h40.7v-163.5zm161.6 196.9v-33.4h-33.6v-20.6h25.4l0.5-7.3 27.3-20.6h-26l6.3-94.7v-81.8h-33.6v-27.8l-27.8 27.8v81.8l8.2 122.5h12.4l-20.6 20.6v61.3h61.5l27.8-27.8h-27.8z" fill="#18244D"/></g>
<g id="change2_1"><path d="m70.9 281l-37.9-37.9v-200.1l37.9-37.8h77.5l37.9 37.8v54h-51.1v-40.7h-51v173.8h51v-41.1h-20.4v-50.9h71.5v105.1l-37.9 37.8h-77.5zm286 0l37.9-37.9v-200.1l-37.9-37.8h-77.5l-38 37.8v200.1l37.9 37.9h77.6zm-64.3-224.7h51v173.8h-51v-173.8zm202.2 224.7v-50.9h-51.1v50.9h51.1zm-7.8-81.8l7.9-117.4v-76.6h-51.1v76.3l7.9 117.7h35.3z" fill="#EE3139"/></g>
<g id="change3_1"><path d="m146.3 10.3l34.9 34.9v46.7h-40.8v-40.8h-61.4v184.1h61.3v-51.3h-20.3v-40.6h61.2v97.7l-34.9 34.9h-73.3l-34.8-34.9v-195.8l34.8-34.9h73.3m4.3-10.3h-81.9l-40.9 40.9v204.4l40.9 40.9h81.8l40.9-40.9v-112.4h-81.8v61.3h20.4v30.7h-40.7v-163.4h40.7v40.7h61.5v-61.3l-40.9-40.9zm204.1 10.3l34.9 34.9v195.8l-34.9 34.9h-73.3l-34.8-34.9v-195.8l34.9-34.9h73.2m-67.3 225h61.3v-184.2h-61.3v184.2m71.6-235.3h-81.8l-40.9 40.9v204.4l40.9 40.9h81.8l40.9-40.9v-204.4l-40.9-40.9zm-61.2 224.9v-163.4h40.7v163.5h-40.7v-0.1zm191.9-214.6v71.2l-7.5 112.5h-25.8l-7.5-112.6v-71.1h40.8m0 225v40.6h-40.8v-40.6h40.8m10.3-235.3h-61.5v81.8l8.2 122.5h45.1l8.2-122.5v-81.8zm0 224.9h-61.5v61.3h61.5v-61.3z" fill="#fff"/></g>
</svg>