<?xml version="1.0" encoding="UTF-8"?><svg xmlns="http://www.w3.org/2000/svg" height="450.07pt" version="1.1" viewBox="0 0 446.54 450.07" width="446.54pt">
 <defs>
  <clipPath id="clip1">
   <path d="m0 0h446.54v450.07h-446.54z"/>
  </clipPath>
 </defs>
 <g id="surface1">
  <g clip-path="url(#clip1)" id="change1_1">
   <path d="m263.34 30.137c0.48-0.164 1.02-0.071 1.43 0.25 2.69 2.179 0.05 14.136-5.75 41 0 0-4.32 20-8.32 38.823-2.1 9.91-3.77 18-4.85 23.32 0.8-5.34 2-13.55 3.42-23.57 1-6.84 2.5-17.663 5.46-39.315 3.75-27.207 5.34-39.348 8.61-40.481zm34.52 9.121c0.5-0.074 1.01 0.109 1.35 0.488 2.27 2.649-2.41 14-12.73 39.371 0 0-7.72 18.938-14.93 36.793-3.79 9.39-6.84 17.1-8.82 22.12 1.72-5.12 4.32-13 7.46-22.62 2.13-6.56 5.52-17.004 12.21-37.765 8.35-26.137 12.08-37.821 15.46-38.36zm32.41 15c0.5 0.031 0.96 0.304 1.21 0.738 1.79 3-4.79 13.301-19.41 36.52 0 0-10.91 17.304-21.09 33.624-5.36 8.59-9.71 15.66-12.53 20.27 2.58-4.75 6.51-12 11.26-21 3.25-6.11 8.4-15.75 18.59-35.074 12.84-24.27 18.5-35.141 21.97-35.078zm29.32 20.379c0.5 0.101 0.92 0.453 1.11 0.929 1.24 3.231-7 12.27-25.47 32.594 0 0-13.73 15.16-26.61 29.46-6.77 7.52-12.27 13.73-15.85 17.77 3.35-4.23 8.51-10.73 14.75-18.7 4.25-5.44 11-14 24.38-31.31 16.81-21.692 24.29-31.384 27.69-30.743zm25.32 25.187c0.47 0.196 0.81 0.616 0.93 1.116 0.67 3.4-9 10.86-30.73 27.68 0 0-16.16 12.54-31.32 24.39-8 6.24-14.49 11.38-18.72 14.75 4-3.58 10.25-9.08 17.78-15.87 5.13-4.6 13.27-11.91 29.45-26.59 20.35-18.48 29.39-26.753 32.61-25.515zm20.57 29.176c0.45 0.27 0.72 0.74 0.73 1.26 0.07 3.45-10.8 9.12-35.07 21.92 0 0-18.09 9.53-35.09 18.59-8.93 4.75-16.23 8.69-21 11.27 4.61-2.83 11.68-7.17 20.27-12.53 5.84-3.66 15.13-9.44 33.62-21.1 23.26-14.65 33.54-21.23 36.54-19.41zm15.23 32.26c0.38 0.34 0.56 0.85 0.49 1.36-0.54 3.42-12.22 7.11-38.35 15.5 0 0-19.47 6.25-37.78 12.2-9.62 3.14-17.5 5.75-22.61 7.47 5-2 12.73-5 22.11-8.83 6.41-2.58 16.55-6.67 36.79-14.92 25.41-10.36 36.73-15 39.35-12.77zm9.36 34.45c0.32 0.4 0.41 0.94 0.25 1.43-1.13 3.27-13.27 4.88-40.46 8.59 0 0-20.26 2.79-39.32 5.48-10 1.41-18.24 2.61-23.58 3.41 5.3-1.07 13.42-2.74 23.33-4.84 6.75-1.44 17.44-3.71 38.81-8.32 26.83-5.8 38.79-8.46 41-5.75zm3.23 35.56c0.25 0.44 0.25 0.99 0 1.44-1.68 3-13.91 2.5-41.34 1.45 0 0-20.43-0.78-39.67-1.45-10.13-0.35-18.4-0.59-23.81-0.73 5.41-0.14 13.68-0.36 23.81-0.71 6.91-0.24 17.83-0.63 39.67-1.45 27.43-1 39.66-1.57 41.34 1.46zm-3 35.57c0.17 0.48 0.08 1.02-0.25 1.43-2.17 2.69-14.14 0.05-41-5.75 0 0-20-4.32-38.82-8.32-9.91-2.11-18-3.77-23.32-4.86 5.35 0.8 13.55 2 23.57 3.43 6.84 1 17.67 2.5 39.32 5.46 27.25 3.77 39.39 5.34 40.52 8.61zm-9.11 34.52c0.07 0.5-0.12 1.01-0.49 1.35-2.63 2.27-13.94-2.41-39.34-12.76 0 0-18.95-7.74-36.79-14.94-9.39-3.8-17.11-6.85-22.12-8.82 5.12 1.72 13 4.33 22.62 7.45 6.55 2.15 17 5.52 37.75 12.22 26.16 8.4 37.84 12.14 38.38 15.51zm-15 32.41c-0.02 0.5-0.28 0.96-0.71 1.23-3 1.78-13.29-4.8-36.52-19.43 0 0-17.3-10.89-33.62-21.09-8.59-5.36-15.65-9.7-20.27-12.52 4.75 2.58 12 6.52 21 11.27 6.11 3.25 15.75 8.39 35.08 18.57 24.26 12.84 35.14 18.52 35.08 22zm-20.39 29.32c-0.1 0.5-0.44 0.92-0.92 1.11-3.23 1.24-12.27-7-32.59-25.47 0 0-15.17-13.73-29.47-26.61-7.52-6.78-13.72-12.28-17.77-15.85 4.23 3.35 10.73 8.51 18.71 14.75 5.44 4.25 14 11 31.31 24.37 21.73 16.84 31.41 24.31 30.78 27.7zm-25.14 25.33c-0.2 0.47-0.61 0.81-1.11 0.92-3.4 0.68-10.86-9.04-27.68-30.72 0 0-12.55-16.16-24.39-31.32-6.25-8-11.39-14.48-14.75-18.71 3.57 4 9.07 10.25 15.86 17.77 4.61 5.14 11.92 13.26 26.6 29.46 18.47 20.34 26.75 29.38 25.51 32.61zm-29.18 20.58c-0.27 0.43-0.74 0.71-1.25 0.73-3.46 0.06-9.12-10.8-21.93-35.09 0 0-9.53-18.09-18.59-35.07-4.75-8.95-8.68-16.23-11.26-21 2.82 4.61 7.17 11.66 12.53 20.25 3.66 5.86 9.43 15.14 21.09 33.63 14.66 23.26 21.23 33.55 19.41 36.55zm-32.25 15.21c-0.34 0.39-0.86 0.58-1.36 0.5-3.42-0.54-7.11-12.23-15.5-38.35 0 0-6.25-19.47-12.21-37.77-3.16-9.59-5.75-17.5-7.46-22.59 2 5 5 12.73 8.82 22.12 2.59 6.4 6.68 16.54 14.93 36.77 10.35 25.41 15 36.73 12.76 39.36zm-34.45 9.36c-0.41 0.32-0.94 0.42-1.43 0.25-3.28-1.12-4.89-13.27-8.6-40.45 0 0-2.79-20.26-5.47-39.32-1.41-10-2.62-18.23-3.42-23.57 1.08 5.29 2.75 13.41 4.85 23.32 1.44 6.75 3.7 17.45 8.32 38.81 5.79 26.83 8.45 38.78 5.74 41zm-35.57 3.25c-0.44 0.23-0.98 0.23-1.43 0-3-1.68-2.51-13.93-1.46-41.34 0 0 0.79-20.44 1.46-39.68 0.34-10.12 0.58-18.41 0.72-23.8 0.14 5.39 0.37 13.68 0.71 23.8 0.25 6.91 0.63 17.82 1.45 39.66 1.05 27.43 1.57 39.68-1.45 41.36zm-35.57-3c-0.48 0.16-1.02 0.06-1.43-0.25-2.68-2.18-0.05-14.14 5.75-41 0 0 4.33-20 8.33-38.82 2.1-9.91 3.76-18 4.85-23.32-0.8 5.34-2 13.53-3.43 23.57-1 6.84-2.5 17.66-5.46 39.3-3.77 27.25-5.34 39.4-8.61 40.52zm-34.52-9.12c-0.5 0.07-1.01-0.11-1.35-0.49-2.27-2.62 2.41-13.94 12.77-39.34 0 0 7.73-18.94 14.94-36.8 3.79-9.38 6.84-17.09 8.82-22.11-1.73 5.11-4.34 13-7.46 22.61-2.14 6.57-5.52 17-12.22 37.77-8.39 26.14-12.08 37.83-15.5 38.37zm-32.41-15c-0.5-0.02-0.95-0.28-1.23-0.7-1.77-3 4.81-13.3 19.43-36.52 0 0 10.89-17.31 21.09-33.64 5.36-8.58 9.71-15.64 12.53-20.25-2.58 4.75-6.52 12-11.27 21-3.25 6.1-8.39 15.73-18.58 35.07-12.84 24.27-18.52 35.14-22 35.07zm-29.315-20.38c-0.5-0.11-0.918-0.46-1.11-0.93-1.238-3.23 7.005-12.27 25.465-32.59 0 0 13.73-15.16 26.61-29.48 6.78-7.52 12.28-13.71 15.85-17.77-3.35 4.24-8.5 10.74-14.75 18.72-4.25 5.44-11 14-24.37 31.3-16.83 21.73-24.3 31.43-27.703 30.79zm-25.329-25.15c-0.472-0.2-0.816-0.62-0.929-1.12-0.672-3.39 9-10.85 30.733-27.67 0 0 16.16-12.54 31.32-24.4 8-6.23 14.47-11.39 18.7-14.75-4.04 3.59-10.25 9.09-17.77 15.86-5.14 4.62-13.26 11.93-29.46 26.61-20.332 18.48-29.375 26.75-32.605 25.51zm-20.582-29.17c-0.437-0.28-0.711-0.75-0.726-1.27-0.063-3.45 10.797-9.11 35.078-21.91 0 0 18.094-9.54 35.074-18.59 8.95-4.75 16.23-8.69 21-11.27-4.61 2.82-11.66 7.16-20.25 12.52-5.86 3.66-15.13 9.45-33.625 21.09-23.258 14.66-33.551 21.25-36.551 19.43zm-15.257-32.27c-0.383-0.34-0.571-0.86-0.493-1.36 0.543-3.42 12.223-7.11 38.352-15.5 0 0 19.469-6.25 37.774-12.21 9.62-3.13 17.5-5.75 22.62-7.46-5 2-12.73 5-22.12 8.82-6.36 2.59-16.544 6.68-36.782 14.98-25.371 10.32-36.691 15-39.312 12.73zm-9.36-34.45c-0.32-0.41-0.414-0.94-0.25-1.44 1.129-3.27 13.27-4.88 40.461-8.59 0 0 20.258-2.79 39.312-5.47 10-1.41 18.23-2.62 23.57-3.42-5.28 1.08-13.41 2.75-23.32 4.85-6.745 1.43-17.445 3.7-38.804 8.32-26.789 5.79-38.75 8.47-40.93 5.75zm-3.242-35.57c-0.238-0.44-0.238-0.98 0-1.43 1.68-3 13.922-2.51 41.34-1.46 0 0 20.441 0.79 39.675 1.46 10.13 0.34 18.41 0.58 23.81 0.72-5.4 0.14-13.68 0.37-23.81 0.71-6.906 0.25-17.824 0.63-39.663 1.45-27.391 1.07-39.629 1.59-41.313-1.45zm3-35.57c-0.16-0.48-0.066-1.02 0.25-1.43 2.18-2.68 14.141-0.05 41 5.75 0 0 20 4.33 38.825 8.33 9.91 2.1 18 3.76 23.32 4.85-5.34-0.8-13.54-2-23.57-3.43-6.845-1-17.665-2.5-39.313-5.46-27.211-3.75-39.352-5.34-40.481-8.61zm9.121-34.52c-0.074-0.5 0.109-1.01 0.488-1.35 2.653-2.27 14 2.41 39.371 12.73 0 0 18.942 7.73 36.785 14.94 9.4 3.79 17.11 6.84 22.13 8.82-5.13-1.72-13-4.33-22.63-7.46-6.55-2.14-16.995-5.52-37.753-12.21-26.141-8.36-37.821-12-38.36-15.47zm15-32.41c0.031-0.5 0.309-0.95 0.738-1.21 3-1.79 13.301 4.8 36.524 19.41 0 0 17.312 10.91 33.632 21.1 8.59 5.36 15.65 9.7 20.25 12.53-4.75-2.58-12-6.52-21-11.27-6.09-3.25-15.73-8.39-35.062-18.58-24.273-12.84-35.14-18.51-35.082-21.98zm20.379-29.32c0.102-0.5 0.453-0.913 0.93-1.105 3.23-1.238 12.273 7.005 32.585 25.465 0 0 15.16 13.73 29.48 26.61 7.52 6.78 13.72 12.28 17.77 15.85-4.23-3.35-10.73-8.5-18.71-14.75-5.45-4.25-14-11-31.31-24.37-21.694-16.82-31.386-24.29-30.745-27.7zm25.152-25.324c0.196-0.472 0.61-0.82 1.11-0.929 3.403-0.672 10.863 9 27.683 30.733 0 0 12.54 16.16 24.39 31.32 6.24 8 11.39 14.47 14.75 18.7-3.59-4.04-9.09-10.25-15.86-17.77-4.62-5.14-11.92-13.26-26.6-29.46-18.45-20.324-26.754-29.363-25.473-32.594zm29.203-20.57c0.28-0.437 0.75-0.711 1.27-0.73 3.46-0.059 9.12 10.8 21.91 35.082 0 0 9.55 18.092 18.6 35.082 4.75 8.94 8.69 16.23 11.27 21-2.82-4.61-7.17-11.67-12.53-20.27-3.66-5.84-9.45-15.12-21.09-33.613-14.66-23.262-21.25-33.551-19.43-36.551zm32.28-15.223c0.34-0.382 0.85-0.566 1.36-0.488 3.42 0.539 7.11 12.223 15.5 38.352 0 0 6.25 19.468 12.2 37.773 3.14 9.63 5.75 17.5 7.47 22.62-2-5-5-12.73-8.83-22.12-2.58-6.4-6.67-16.543-14.92-36.785-10.38-25.41-15.06-36.73-12.78-39.352zm34.45-9.359c0.4-0.316 0.94-0.41 1.43-0.25 3.27 1.133 4.88 13.274 8.59 40.461 0 0 2.79 20.262 5.48 39.325 1.41 10 2.61 18.23 3.41 23.57-1.07-5.29-2.74-13.41-4.84-23.32-1.44-6.75-3.71-17.454-8.32-38.813-5.8-26.832-8.48-38.789-5.75-40.973zm51.45 22.332c0.32-0.141 0.7-0.109 1 0.078 1.91 1.211 0.91 8.731-1.27 25.582 0 0-1.62 12.559-3.1 24.384-0.78 6.22-1.38 11.32-1.77 14.64 0.19-3.34 0.49-8.47 0.8-14.72 0.22-4.272 0.56-11.003 1.18-24.554 0.76-17 1.07-24.539 3.18-25.398zm15.55 2c0.33-0.094 0.68-0.031 0.95 0.168 1.82 1.383 0.16 8.774-3.48 25.371 0 0-2.72 12.371-5.22 24.005-1.31 6.12-2.36 11.15-3 14.42 0.49-3.3 1.22-8.39 2.08-14.59 0.58-4.233 1.52-10.944 3.32-24.354 2.24-16.77 3.21-24.328 5.37-25zm15.34 3.359c0.33-0.07 0.68 0.024 0.93 0.25 1.68 1.532-0.61 8.75-5.68 25 0 0-3.78 12.083-7.3 23.465-1.84 6-3.32 10.91-4.29 14.12 0.79-3.25 2-8.25 3.36-14.37 0.95-4.16 2.46-10.754 5.41-23.996 3.75-16.578 5.37-24 7.59-24.457zm15 4.68c0.33-0.035 0.67 0.086 0.91 0.332 1.54 1.668-1.39 8.656-7.85 24.367 0 0-4.81 11.723-9.31 22.746-2.36 5.82-4.26 10.59-5.5 13.7 1.07-3.18 2.66-8.05 4.6-14 1.31-4.07 3.39-10.516 7.49-23.407 5.15-16.207 7.41-23.449 9.66-23.726zm14.52 6c0.33 0 0.65 0.149 0.87 0.41 1.38 1.801-2.14 8.512-9.94 23.602 0 0-5.82 11.253-11.25 21.843-2.86 5.59-5.18 10.18-6.68 13.16 1.34-3.07 3.36-7.78 5.8-13.57 1.66-3.93 4.29-10.16 9.5-22.656 6.54-15.707 9.43-22.726 11.7-22.816zm13.93 7.211c0.34 0.027 0.64 0.207 0.84 0.488 1.23 1.911-2.86 8.289-12 22.641 0 0-6.79 10.695-13.11 20.785-3.34 5.32-6 9.68-7.79 12.53 1.59-2.94 4-7.46 6.95-13 2-3.78 5.16-9.76 11.43-21.745 7.94-15.097 11.43-21.84 13.68-21.699zm13.29 8.371c0.33 0.043 0.62 0.25 0.78 0.547 1.07 2-3.56 8-13.87 21.526 0 0-7.69 10.06-14.88 19.56-3.79 5-6.86 9.11-8.86 11.8 1.84-2.79 4.66-7.09 8.07-12.35 2.32-3.59 6-9.27 13.29-20.67 9.18-14.315 13.18-20.725 15.45-20.413zm12.48 9.52c0.32 0.082 0.6 0.308 0.74 0.621 0.88 2.09-4.26 7.672-15.71 20.222 0 0-8.53 9.36-16.53 18.2-4.2 4.64-7.62 8.48-9.84 11 2.08-2.63 5.25-6.64 9.1-11.59 2.63-3.38 6.77-8.72 15.04-19.43 10.38-13.496 14.94-19.523 17.2-19.004zm11.6 10.573c0.32 0.11 0.57 0.36 0.68 0.68 0.68 2.16-4.91 7.27-17.41 18.77 0 0-9.32 8.59-18.05 16.69-4.61 4.27-8.33 7.79-10.77 10.08 2.3-2.43 5.82-6.16 10.09-10.77 2.89-3.12 7.5-8.09 16.66-18 11.5-12.54 16.61-18.14 18.78-17.45zm10.63 11.54c0.3 0.13 0.54 0.41 0.62 0.73 0.5 2.23-5.53 6.82-19 17.2 0 0-10 7.73-19.44 15-5 3.85-9 7-11.59 9.1 2.5-2.23 6.32-5.64 11-9.84 3.17-2.87 8.19-7.41 18.19-16.53 12.52-11.4 18.11-16.54 20.22-15.66zm9.61 12.41c0.3 0.16 0.5 0.45 0.55 0.79 0.3 2.25-6.11 6.3-20.41 15.46 0 0-10.66 6.84-20.68 13.3-5.27 3.4-9.55 6.22-12.34 8.06 2.68-2 6.8-5.06 11.8-8.86 3.4-2.57 8.79-6.65 19.56-14.86 13.46-10.3 19.46-14.93 21.48-13.87zm8.46 13.21c0.28 0.18 0.46 0.49 0.48 0.84 0.11 2.25-6.62 5.75-21.67 13.63 0 0-11.22 5.87-21.76 11.44-5.55 2.93-10.07 5.36-13 6.95 2.86-1.75 7.22-4.45 12.53-7.79 3.62-2.28 9.36-5.87 20.78-13.12 14.3-9.07 20.69-13.16 22.6-11.93zm7.29 13.9c0.26 0.21 0.41 0.53 0.41 0.87-0.09 2.27-7.11 5.16-22.79 11.68 0 0-11.69 4.89-22.66 9.52-5.78 2.44-10.5 4.46-13.56 5.79 3-1.5 7.56-3.81 13.15-6.67 3.8-2 9.82-5 21.84-11.25 15.05-7.8 21.73-11.32 23.57-9.92zm6 14.48c0.25 0.23 0.37 0.57 0.33 0.91-0.28 2.25-7.53 4.5-23.71 9.66 0 0-12.07 3.84-23.41 7.48-6 1.93-10.84 3.54-14 4.59 3.11-1.23 7.88-3.12 13.69-5.5 4-1.6 10.22-4.14 22.74-9.29 15.69-6.46 22.69-9.37 24.36-7.85zm4.76 15c0.22 0.25 0.31 0.59 0.25 0.93-0.48 2.21-7.89 3.84-24.47 7.55 0 0-12.35 2.78-24 5.43-6.11 1.39-11.11 2.57-14.36 3.35 3.21-1 8.12-2.44 14.11-4.28 4.08-1.27 10.55-3.25 23.47-7.29 16.25-5.09 23.47-7.4 25-5.69zm3.45 15.27c0.22 0.28 0.28 0.66 0.16 1-0.68 2.17-8.19 3.14-25 5.39 0 0-12.54 1.69-24.34 3.32-6.21 0.86-11.29 1.59-14.6 2.07 3.28-0.66 8.3-1.71 14.42-3 4.19-0.89 10.81-2.32 24-5.21 16.54-3.7 23.94-5.36 25.32-3.55zm2.09 15.55c0.19 0.29 0.22 0.67 0.07 1-0.85 2.11-8.43 2.41-25.39 3.2 0 0-12.66 0.58-24.56 1.17-6.26 0.32-11.38 0.61-14.73 0.81 3.33-0.39 8.43-1 14.65-1.77 4.24-0.53 11-1.37 24.37-3.11 16.82-2.19 24.39-3.21 25.55-1.28zm0.73 15.68c0.16 0.31 0.16 0.68 0 1-1 2-8.62 1.66-25.59 1l-24.57-1c-6.27-0.23-11.39-0.39-14.73-0.48 3.34-0.09 8.46-0.25 14.73-0.48 4.28-0.16 11-0.42 24.56-1 16.94-0.7 24.51-1 25.56 1zm-0.66 15.68c0.15 0.32 0.12 0.7-0.07 1-1.21 1.91-8.73 0.91-25.59-1.27 0 0-12.55-1.62-24.37-3.11-6.22-0.77-11.32-1.37-14.65-1.76 3.35 0.19 8.47 0.49 14.73 0.8 4.27 0.21 11 0.55 24.54 1.18 16.94 0.76 24.52 1.07 25.38 3.18zm-2 15.55c0.1 0.33 0.04 0.68-0.16 0.96-1.38 1.81-8.77 0.15-25.37-3.49 0 0-12.38-2.72-24-5.22-6.13-1.32-11.15-2.36-14.43-3 3.3 0.48 8.39 1.22 14.6 2.07 4.23 0.59 10.93 1.52 24.34 3.33 16.75 2.24 24.31 3.21 25 5.38zm-3.35 15.34c0.07 0.33-0.02 0.68-0.26 0.93-1.52 1.69-8.74-0.61-25-5.68 0 0-12.07-3.78-23.46-7.3-6-1.84-10.9-3.32-14.11-4.29 3.25 0.79 8.25 2 14.36 3.36 4.16 1 10.75 2.46 24 5.42 16.55 3.74 23.95 5.36 24.43 7.58zm-4.68 15c0.03 0.33-0.09 0.67-0.33 0.91-1.67 1.54-8.66-1.39-24.37-7.86 0 0-11.72-4.8-22.75-9.3-5.81-2.36-10.59-4.27-13.7-5.5 3.18 1.07 8.06 2.66 14 4.59 4.07 1.32 10.52 3.39 23.41 7.5 16.18 5.14 23.42 7.41 23.7 9.66zm-6 14.52c0 0.33-0.15 0.65-0.41 0.87-1.81 1.38-8.51-2.14-23.6-9.94 0 0-11.25-5.82-21.85-11.25-5.58-2.86-10.18-5.18-13.15-6.68 3.06 1.34 7.77 3.36 13.56 5.8 3.93 1.66 10.16 4.29 22.66 9.5 15.68 6.54 22.7 9.43 22.79 11.7zm-7.22 13.93c-0.02 0.34-0.2 0.64-0.48 0.84-1.91 1.23-8.29-2.86-22.64-12 0 0-10.7-6.79-20.79-13.11-5.31-3.34-9.67-6-12.52-7.79 2.93 1.59 7.46 4 13 7 3.77 2 9.75 5.16 21.74 11.43 15.07 7.93 21.81 11.41 21.67 13.68zm-8.39 13.26c-0.05 0.33-0.25 0.63-0.55 0.79-2 1.05-8-3.57-21.52-13.88 0 0-10.06-7.69-19.56-14.89-5-3.78-9.11-6.84-11.8-8.84 2.79 1.84 7.07 4.66 12.35 8.06 3.59 2.32 9.27 6 20.67 13.28 14.3 9.16 20.72 13.23 20.41 15.48zm-9.52 12.48c-0.09 0.33-0.31 0.6-0.62 0.74-2.09 0.88-7.67-4.27-20.22-15.71 0 0-9.36-8.53-18.2-16.53-4.65-4.21-8.48-7.62-11-9.85 2.62 2.09 6.63 5.25 11.59 9.11 3.38 2.62 8.72 6.78 19.43 15.05 13.49 10.37 19.52 14.93 19 17.19zm-10.57 11.6c-0.11 0.32-0.36 0.57-0.68 0.68-2.17 0.69-7.27-4.92-18.78-17.42 0 0-8.58-9.32-16.68-18.05-4.27-4.59-7.79-8.32-10.08-10.75 2.43 2.29 6.16 5.8 10.76 10.07 3.12 2.91 8.08 7.52 18 16.68 12.58 11.5 18.17 16.62 17.46 18.79zm-11.48 10.6c-0.14 0.31-0.41 0.53-0.74 0.61-2.23 0.5-6.82-5.52-17.19-19 0 0-7.73-10-15.05-19.43-3.85-4.96-7-9-9.1-11.59 2.22 2.5 5.63 6.32 9.84 11 2.87 3.16 7.41 8.18 16.52 18.18 11.43 12.59 16.57 18.16 15.68 20.25zm-12.41 9.63c-0.16 0.29-0.46 0.5-0.79 0.55-2.25 0.31-6.3-6.1-15.47-20.41 0 0-6.83-10.66-13.3-20.68-3.39-5.26-6.21-9.55-8.05-12.34 2 2.68 5.05 6.8 8.85 11.8 2.58 3.4 6.66 8.79 14.86 19.56 10.31 13.46 14.94 19.47 13.88 21.48zm-13.21 8.46c-0.19 0.28-0.5 0.46-0.85 0.49-2.25 0.1-5.75-6.63-13.62-21.68 0 0-5.88-11.22-11.45-21.75-2.93-5.56-5.36-10.07-6.94-13 1.75 2.85 4.44 7.21 7.78 12.51 2.28 3.63 5.88 9.36 13.12 20.79 9.08 14.3 13.17 20.68 11.94 22.6zm-13.9 7.29c-0.22 0.26-0.54 0.41-0.88 0.41-2.26-0.09-5.16-7.11-11.68-22.79 0 0-4.89-11.69-9.51-22.66-2.45-5.78-4.47-10.5-5.79-13.57 1.5 3 3.81 7.57 6.66 13.16 2 3.79 5 9.82 11.25 21.84 7.8 15.05 11.32 21.73 9.93 23.57zm-14.48 6c-0.24 0.25-0.57 0.37-0.91 0.33-2.25-0.28-4.51-7.53-9.66-23.71 0 0-3.84-12.07-7.49-23.41-1.93-6-3.53-10.84-4.59-14 1.23 3.11 3.13 7.88 5.5 13.68 1.61 4 4.15 10.23 9.29 22.75 6.43 15.72 9.34 22.72 7.82 24.39zm-15 4.75c-0.26 0.23-0.6 0.32-0.93 0.25-2.22-0.47-3.84-7.88-7.56-24.46 0 0-2.77-12.35-5.42-24-1.4-6.11-2.57-11.11-3.35-14.36 1 3.21 2.44 8.12 4.28 14.1 1.26 4.09 3.25 10.56 7.28 23.47 5.07 16.29 7.38 23.5 5.66 25.03zm-15.27 3.48c-0.29 0.22-0.66 0.29-1 0.18-2.18-0.68-3.14-8.2-5.39-25 0 0-1.7-12.55-3.32-24.36-0.86-6.2-1.59-11.28-2.08-14.59 0.66 3.27 1.72 8.29 3 14.43 0.9 4.18 2.32 10.8 5.22 24 3.64 16.53 5.3 23.93 3.5 25.31zm-15.55 2.1c-0.3 0.19-0.68 0.22-1 0.08-2.11-0.86-2.42-8.43-3.2-25.41 0 0-0.59-12.66-1.18-24.55-0.31-6.26-0.61-11.38-0.8-14.72 0.39 3.32 1 8.41 1.77 14.64 0.53 4.24 1.37 11 3.1 24.38 2.2 16.8 3.21 24.37 1.29 25.53zm-15.68 0.72c-0.32 0.16-0.69 0.16-1 0-2-1-1.67-8.61-1-25.59 0 0 0.52-12.66 1-24.55 0.23-6.27 0.39-11.41 0.48-14.74 0.09 3.33 0.25 8.47 0.48 14.74 0.16 4.27 0.41 11 1 24.55 0.68 16.93 1 24.52-1 25.56zm-15.68-0.64c-0.33 0.14-0.7 0.11-1-0.08-1.93-1.21-0.91-8.73 1.27-25.58 0 0 1.62-12.56 3.1-24.38 0.77-6.23 1.38-11.32 1.77-14.64-0.2 3.34-0.5 8.46-0.82 14.72-0.2 4.26-0.54 11-1.16 24.55-0.77 16.93-1.07 24.5-3.18 25.37zm-15.56-2c-0.35 0.1-0.72 0.04-1-0.18-1.82-1.37-0.16-8.77 3.49-25.36 0 0 2.71-12.37 5.21-24 1.32-6.14 2.37-11.16 3-14.43-0.48 3.31-1.21 8.39-2.07 14.6-0.59 4.23-1.52 10.94-3.32 24.35-2.2 16.73-3.16 24.3-5.33 25zm-15.33-3.36c-0.34 0.07-0.68-0.03-0.93-0.25-1.7-1.53 0.6-8.75 5.68-25 0 0 3.78-12.09 7.3-23.47 1.84-6 3.32-10.9 4.28-14.12-0.78 3.25-2 8.25-3.35 14.37-1 4.17-2.47 10.76-5.42 24-3.74 16.54-5.37 23.95-7.58 24.42zm-15-4.68c-0.34 0.03-0.68-0.09-0.91-0.33-1.54-1.67 1.37-8.67 7.85-24.37 0 0 4.81-11.72 9.3-22.75 2.36-5.81 4.27-10.58 5.5-13.69-1.07 3.18-2.66 8-4.59 14-1.31 4.07-3.39 10.5-7.49 23.39-5.15 16.18-7.41 23.43-9.66 23.71zm-14.52-6c-0.34 0-0.66-0.16-0.88-0.41-1.39-1.8 2.14-8.51 9.95-23.6 0 0 5.82-11.25 11.25-21.86 2.86-5.57 5.16-10.16 6.66-13.14-1.32 3.06-3.34 7.78-5.79 13.56-1.66 3.93-4.28 10.17-9.5 22.66-6.57 15.7-9.46 22.72-11.73 22.81zm-13.93-7.21c-0.34-0.04-0.65-0.21-0.84-0.49-1.23-1.92 2.86-8.3 12-22.64 0 0 6.78-10.7 13.11-20.8 3.34-5.3 6-9.66 7.78-12.52-1.59 2.95-4 7.47-6.94 13-2 3.79-5.16 9.77-11.45 21.75-7.95 15.09-11.43 21.84-13.66 21.7zm-13.29-8.38c-0.34-0.04-0.64-0.24-0.8-0.55-1.05-2 3.57-8 13.89-21.52 0 0 7.68-10.05 14.88-19.55 3.78-5 6.85-9.11 8.85-11.8-1.84 2.78-4.66 7.08-8.07 12.35-2.32 3.59-6 9.27-13.28 20.66-9.18 14.32-13.18 20.73-15.47 20.41zm-12.48-9.51c-0.33-0.09-0.61-0.31-0.75-0.63-0.87-2.09 4.27-7.66 15.72-20.21 0 0 8.53-9.36 16.53-18.2 4.2-4.66 7.62-8.48 9.84-11-2.09 2.62-5.25 6.64-9.11 11.59-2.62 3.38-6.77 8.72-15 19.43-10.41 13.48-15 19.52-17.23 19zm-11.61-10.57c-0.32-0.11-0.57-0.36-0.67-0.68-0.69-2.17 4.91-7.27 17.41-18.79 0 0 9.32-8.57 18-16.68 4.6-4.27 8.33-7.78 10.76-10.07-2.3 2.43-5.82 6.16-10.08 10.75-2.9 3.14-7.51 8.09-16.67 18-11.46 12.55-16.57 18.16-18.75 17.47zm-10.624-11.54c-0.308-0.14-0.539-0.41-0.621-0.74-0.5-2.22 5.531-6.82 19.005-17.19 0 0 10-7.73 19.44-15.05 5-3.86 9-7 11.59-9.11-2.5 2.23-6.32 5.64-11 9.85-3.18 2.86-8.2 7.4-18.2 16.53-12.546 11.44-18.124 16.59-20.214 15.71zm-9.629-12.41c-0.301-0.16-0.504-0.46-0.551-0.79-0.308-2.25 6.098-6.3 20.414-15.48 0 0 10.66-6.82 20.66-13.28 5.27-3.4 9.57-6.22 12.36-8.06-2.7 2-6.8 5.06-11.8 8.84-3.4 2.59-8.81 6.66-19.56 14.88-13.464 10.3-19.476 14.92-21.484 13.87zm-8.461-13.21c-0.285-0.19-0.465-0.5-0.492-0.84-0.109-2.26 6.633-5.75 21.684-13.63 0 0 11.222-5.87 21.752-11.45 5.54-2.92 10.06-5.35 13-7-2.85 1.75-7.21 4.45-12.53 7.8-3.61 2.27-9.36 5.86-20.773 13.11-14.313 9.13-20.692 13.22-22.551 11.99zm-7.289-13.9c-0.262-0.22-0.41-0.54-0.41-0.87 0.09-2.27 7.109-5.16 22.789-11.7 0 0 11.692-4.87 22.664-9.5 5.78-2.45 10.5-4.46 13.55-5.79-3 1.5-7.57 3.81-13.14 6.67-3.8 2-9.84 5-21.843 11.25-15 7.78-21.743 11.3-23.571 9.92zm-6-14.48c-0.25-0.24-0.371-0.57-0.332-0.91 0.281-2.25 7.52-4.52 23.711-9.66 0 0 12.07-3.84 23.414-7.49 6-1.93 10.84-3.53 14-4.6-3.11 1.23-7.88 3.14-13.7 5.5-4 1.62-10.226 4.16-22.733 9.3-15.692 6.45-22.692 9.38-24.36 7.86zm-4.762-15c-0.222-0.26-0.316-0.6-0.25-0.93 0.481-2.23 7.891-3.84 24.473-7.56 0 0 12.348-2.78 23.992-5.42 6.12-1.39 11.12-2.57 14.37-3.36-3.21 1-8.12 2.45-14.12 4.29-4.086 1.26-10.543 3.25-23.465 7.28-16.25 5.09-23.468 7.41-25 5.7zm-3.398-15.27c-0.219-0.29-0.281-0.66-0.172-1 0.68-2.18 8.199-3.14 25-5.39 0 0 12.551-1.7 24.355-3.32 6.21-0.86 11.29-1.59 14.59-2.08-3.27 0.67-8.29 1.72-14.43 3-4.175 0.9-10.792 2.32-23.995 5.22-16.559 3.64-24 5.3-25.34 3.5zm-2.09-15.55c-0.191-0.3-0.222-0.68-0.082-1 0.86-2.11 8.43-2.42 25.403-3.2 0 0 12.66-0.59 24.558-1.18 6.264-0.32 11.374-0.6 14.714-0.8-3.32 0.39-8.41 1-14.632 1.77-4.242 0.53-11 1.37-24.383 3.1-16.84 2.2-24.359 3.2-25.57 1.29zm-0.73-15.68c-0.16-0.32-0.16-0.69 0-1 1-2 8.621-1.68 25.59-1l24.558 1c6.265 0.23 11.405 0.39 14.745 0.48-3.34 0.09-8.48 0.25-14.745 0.48-4.269 0.16-11 0.41-24.551 1-17 0.68-24.546 1-25.589-1zm0.648-15.68c-0.14-0.33-0.109-0.71 0.082-1 1.211-1.93 8.731-0.91 25.578 1.27 0 0 12.563 1.62 24.383 3.1 6.222 0.77 11.312 1.38 14.632 1.77-3.34-0.2-8.45-0.5-14.714-0.82-4.269-0.2-11-0.54-24.551-1.16-17-0.77-24.539-1.07-25.398-3.18zm2-15.56c-0.105-0.35-0.043-0.72 0.172-1 1.379-1.81 8.77-0.15 25.371 3.49 0 0 12.367 2.71 23.992 5.21 6.14 1.32 11.16 2.36 14.44 3-3.31-0.48-8.39-1.21-14.6-2.07-4.234-0.59-10.945-1.52-24.355-3.32-16.77-2.19-24.328-3.16-25-5.34zm3.36-15.33c-0.071-0.34 0.023-0.68 0.25-0.93 1.531-1.7 8.75 0.61 25 5.68 0 0 12.082 3.78 23.475 7.3 6 1.84 10.9 3.32 14.11 4.28-3.25-0.78-8.25-2-14.36-3.35-4.175-0.95-10.765-2.46-24.003-5.43-16.582-3.73-24-5.36-24.461-7.57zm4.683-15c-0.039-0.34 0.086-0.68 0.328-0.91 1.672-1.54 8.66 1.37 24.371 7.85 0 0 11.719 4.81 22.753 9.29 5.81 2.38 10.58 4.28 13.68 5.5-3.17-1.05-8-2.65-14-4.59-4.07-1.3-10.503-3.38-23.394-7.48-16.211-5.15-23.449-7.41-23.73-9.66zm6-14.52c-0.004-0.34 0.149-0.66 0.406-0.87 1.801-1.4 8.512 2.12 23.602 9.94 0 0 11.254 5.82 21.854 11.25 5.58 2.86 10.17 5.16 13.15 6.66-3.06-1.32-7.79-3.34-13.56-5.78-3.93-1.66-10.17-4.29-22.663-9.5-15.711-6.54-22.73-9.43-22.82-11.7zm7.207-13.93c0.031-0.34 0.211-0.65 0.492-0.84 1.911-1.23 8.289 2.86 22.637 12 0 0 10.706 6.77 20.796 13.11 5.31 3.34 9.66 6 12.52 7.79-2.94-1.59-7.46-4-13-6.95-3.78-2-9.77-5.16-21.746-11.45-15.148-7.91-21.886-11.41-21.75-13.66zm8.371-13.27c0.047-0.33 0.25-0.62 0.551-0.78 2-1.06 8 3.57 21.523 13.87 0 0 10.06 7.7 19.56 14.89 5 3.79 9.1 6.85 11.8 8.85-2.79-1.84-7.08-4.66-12.36-8.06-3.59-2.32-9.27-6-20.66-13.29-14.324-9.16-20.773-13.23-20.465-15.48zm9.52-12.48c0.07-0.31 0.281-0.59 0.57-0.73 2.09-0.88 7.668 4.26 20.214 15.71 0 0 9.36 8.52 18.2 16.52 4.66 4.21 8.48 7.63 11 9.84-2.61-2.07-6.63-5.25-11.59-9.09-3.37-2.63-8.71-6.78-19.43-15-13.484-10.43-19.515-14.98-19.015-17.25zm10.574-11.59c0.11-0.32 0.36-0.57 0.68-0.68 2.17-0.69 7.27 4.91 18.78 17.41 0 0 8.58 9.32 16.68 18 4.27 4.59 7.79 8.33 10.07 10.75-2.42-2.28-6.16-5.8-10.75-10.07-3.14-2.91-8.09-7.51-18-16.67-12.6-11.47-18.2-16.58-17.46-18.74zm11.48-10.632c0.14-0.313 0.42-0.539 0.75-0.621 2.22-0.5 6.82 5.527 17.18 19.003 0 0 7.73 10 15 19.43 3.86 4.96 7 9 9.11 11.59-2.22-2.5-5.64-6.31-9.84-11-2.88-3.16-7.41-8.18-16.54-18.18-11.39-12.55-16.53-18.132-15.66-20.222zm12.41-9.633c0.16-0.301 0.46-0.504 0.8-0.551 2.25-0.308 6.29 6.102 15.47 20.406 0 0 6.82 10.66 13.29 20.68 3.4 5.27 6.21 9.55 8.06 12.35-2-2.69-5.06-6.8-8.85-11.8-2.59-3.41-6.66-8.8-14.87-19.57-10.31-13.452-14.93-19.464-13.88-21.476zm13.21-8.461c0.19-0.281 0.5-0.465 0.84-0.488 2.26-0.11 5.75 6.629 13.63 21.679 0 0 5.87 11.215 11.44 21.755 2.93 5.55 5.36 10.07 6.95 13-1.75-2.85-4.45-7.22-7.8-12.52-2.27-3.63-5.86-9.36-13.11-20.785-9.05-14.309-13.16-20.688-11.93-22.598zm13.9-7.289c0.21-0.262 0.53-0.41 0.87-0.41 2.27 0.09 5.16 7.109 11.68 22.793 0 0 4.89 11.692 9.52 22.652 2.44 5.79 4.46 10.5 5.79 13.57-1.5-3-3.81-7.57-6.67-13.16-1.96-3.79-5-9.82-11.25-21.836-7.8-15-11.32-21.738-9.92-23.57zm14.48-6c0.23-0.246 0.57-0.371 0.91-0.328 2.25 0.277 4.5 7.519 9.66 23.711 0 0 3.84 12.066 7.49 23.402 1.92 6 3.53 10.85 4.58 14-1.23-3.11-3.12-7.87-5.5-13.68-1.6-4-4.14-10.234-9.3-22.746-6.43-15.687-9.32-22.687-7.84-24.359zm15-4.758c0.25-0.226 0.59-0.316 0.93-0.25 2.21 0.481 3.84 7.891 7.55 24.469 0 0 2.77 12.352 5.43 24.004 1.39 6.11 2.57 11.11 3.34 14.36-1-3.22-2.43-8.13-4.27-14.11-1.26-4.09-3.25-10.555-7.3-23.473-5.07-16.25-7.38-23.472-5.68-25zm15.29-3.441c0.28-0.219 0.66-0.281 1-0.168 2.17 0.68 3.14 8.199 5.39 25 0 0 1.69 12.547 3.32 24.352 0.86 6.21 1.59 11.28 2.07 14.6-0.66-3.28-1.71-8.3-3-14.43-0.89-4.18-2.32-10.803-5.21-24.007-3.72-16.566-5.34-23.968-3.56-25.347zm15.55-2.09c0.3-0.191 0.67-0.223 1-0.078 2.11 0.859 2.41 8.43 3.2 25.398 0 0 0.58 12.66 1.17 24.554 0.32 6.27 0.61 11.39 0.81 14.73-0.39-3.32-1-8.42-1.77-14.64-0.53-4.245-1.37-11.003-3.11-24.386-2.21-16.848-3.21-24.367-1.3-25.578zm15.68-0.731c0.31-0.16 0.68-0.16 1 0 2 1 1.66 8.622 1 25.59 0 0-0.52 12.66-1 24.565-0.23 6.27-0.39 11.4-0.48 14.74-0.09-3.34-0.25-8.47-0.48-14.74-0.16-4.276-0.42-11.002-1-24.553-0.7-16.98-1.04-24.562 0.96-25.602zm73.23 137.9c-0.82-1.44-2.66-1.93-4.09-1.1-1.44 0.83-1.93 2.66-1.1 4.1 0.83 1.43 2.66 1.92 4.1 1.1 1.43-0.83 1.92-2.67 1.1-4.1h-0.01zm127.59-74.5c0.5 0.2 0.8 0.71 0.73 1.25-0.5 3.79-15.39 11.78-48.71 29.8 0 0-24.84 13.43-48.18 26.14-12.27 6.69-22.3 12.2-28.84 15.81 6.39-3.86 16.19-9.77 28.12-17.06 8.13-5 21-12.84 46.71-28.65 32.28-19.85 46.65-28.79 50.17-27.29zm-121.41 145.23c0.57-1.56-0.23-3.28-1.79-3.85-1.55-0.57-3.27 0.23-3.84 1.79s0.23 3.28 1.79 3.85c1.55 0.57 3.27-0.23 3.84-1.79zm139.07 49.84c0.17 0.52-0.03 1.08-0.5 1.37-3.2 2.06-18.91-4.23-54.12-18.16 0 0-26.26-10.39-51-20.1-13-5.11-23.7-9.24-30.65-11.92 7.06 2.4 17.89 6.11 31.14 10.56 9 3 23.34 7.84 52 17.36 35.95 11.98 52.01 17.26 53.13 20.89zm-189.27 0.36c1.56-0.57 2.36-2.3 1.79-3.85-0.57-1.56-2.29-2.36-3.85-1.79-1.55 0.57-2.35 2.29-1.78 3.85 0.56 1.55 2.29 2.36 3.84 1.79zm51.22 138.59c-0.29 0.45-0.85 0.66-1.36 0.5-3.64-1.14-8.92-17.22-20.89-53.15 0 0-8.91-26.8-17.38-52-4.44-13.25-8.14-24.08-10.55-31.14 2.68 7 6.8 17.63 11.91 30.65 3.49 8.87 9 22.92 20.11 51 13.94 35.21 20.21 50.92 18.16 54.14zm-121.95-144.77c1.44 0.82 3.28 0.33 4.1-1.11 0.83-1.43 0.34-3.26-1.1-4.09-1.43-0.83-3.27-0.34-4.09 1.09-0.83 1.44-0.34 3.27 1.09 4.1v0.01zm-73.25 128.3c-0.53 0.09-1.05-0.21-1.25-0.71-1.45-3.54 7.45-17.9 27.3-50.17 0 0 14.79-24.05 28.65-46.72 7.28-11.93 13.21-21.72 17.05-28.11-3.6 6.53-9.11 16.55-15.8 28.84-4.56 8.37-11.79 21.62-26.13 48.16-18.05 33.32-26.05 48.23-29.82 48.71zm32.54-186.43c0.29 1.64 1.84 2.72 3.48 2.43 1.63-0.29 2.71-1.85 2.42-3.48s-1.84-2.71-3.47-2.43c-1.64 0.29-2.72 1.85-2.43 3.48zm-145.38 26.38c-0.39844-0.37-0.5-0.96-0.25-1.43 1.7578-3.39 18.488-5.8 56-11.34 0 0 27.941-4.14 54.213-8.09 13.83-2.09 25.13-3.84 32.5-5-7.32 1.43-18.55 3.65-32.25 6.41-9.34 1.9-24.135 4.89-53.694 10.95-37.148 7.57-53.711 11.04-56.519 8.5zm163.75-95c-1.07 1.27-0.9 3.16 0.37 4.22 1.27 1.07 3.16 0.9 4.22-0.37 1.07-1.27 0.9-3.16-0.36-4.23-1.27-1.06-3.16-0.9-4.23 0.37v0.01zm-113.66-94.414c0.02-0.539 0.403-1 0.93-1.109 3.723-0.832 16.332 10.437 44.664 35.573 0 0 21.122 18.75 40.992 36.34 10.48 9.25 19.09 16.79 24.72 21.68-5.81-4.68-14.72-11.86-25.65-20.57-7.45-5.95-19.25-15.36-42.882-34.11-29.653-23.535-42.93-33.995-42.774-37.804zm192.59 65.694c-1.62-0.3-3.18 0.79-3.47 2.43-0.29 1.63 0.8 3.18 2.43 3.47s3.18-0.79 3.48-2.42c0.28-1.63-0.81-3.19-2.44-3.47zm14.14 3.79c-1.55-0.57-3.27 0.23-3.84 1.79-0.57 1.55 0.24 3.28 1.79 3.84 1.56 0.57 3.28-0.23 3.85-1.79 0.56-1.55-0.23-3.27-1.79-3.84h-0.01zm13.27 6.18c-1.43-0.83-3.27-0.34-4.09 1.1-0.83 1.43-0.34 3.27 1.1 4.1 1.44 0.82 3.27 0.33 4.1-1.1 0.82-1.44 0.34-3.28-1.1-4.1h-0.01zm12 8.39c-1.27-1.06-3.16-0.89-4.22 0.38s-0.9 3.16 0.37 4.23c1.27 1.06 3.16 0.89 4.23-0.37 1.06-1.27 0.9-3.17-0.37-4.23l-0.01-0.01zm10.36 10.36c-1.07-1.27-2.96-1.44-4.23-0.38s-1.44 2.95-0.38 4.23c1.07 1.26 2.96 1.44 4.23 0.38 1.27-1.07 1.44-2.96 0.38-4.23zm8.39 12c-0.82-1.44-2.66-1.93-4.09-1.1-1.44 0.83-1.93 2.66-1.1 4.1 0.83 1.43 2.66 1.92 4.1 1.1 1.43-0.83 1.92-2.67 1.1-4.1h-0.01zm6.18 13.27c-0.56-1.56-2.29-2.36-3.84-1.79-1.56 0.57-2.36 2.29-1.79 3.85 0.57 1.55 2.29 2.35 3.84 1.79 1.56-0.57 2.36-2.29 1.8-3.85h-0.01zm3.8 14.14c-0.3-1.64-1.85-2.72-3.48-2.43s-2.72 1.85-2.43 3.48 1.84 2.72 3.48 2.43c1.63-0.29 2.72-1.85 2.43-3.48zm1.27 14.59c0-1.66-1.34-3-3-3-1.65 0-3 1.34-3 3 0 1.65 1.35 3 3 3 1.66 0 3-1.35 3-3zm-1.27 14.59c0.29-1.64-0.8-3.19-2.44-3.48-1.63-0.29-3.18 0.8-3.47 2.43s0.8 3.19 2.43 3.48c1.63 0.28 3.18-0.8 3.48-2.43zm-3.8 14.14c0.57-1.56-0.23-3.28-1.79-3.85-1.55-0.57-3.27 0.23-3.84 1.79s0.23 3.28 1.79 3.85c1.55 0.57 3.27-0.23 3.84-1.79zm-6.18 13.27c0.83-1.44 0.34-3.27-1.09-4.1-1.44-0.83-3.28-0.33-4.1 1.1-0.83 1.43-0.34 3.27 1.1 4.09 1.43 0.84 3.27 0.34 4.09-1.09zm-8.39 12c1.06-1.27 0.89-3.16-0.38-4.23-1.27-1.06-3.16-0.9-4.23 0.37-1.05 1.27-0.89 3.16 0.38 4.23 1.27 1.06 3.16 0.9 4.22-0.37h0.01zm-10.36 10.34c1.28-1.06 1.45-2.95 0.38-4.22-1.06-1.27-2.95-1.44-4.22-0.37-1.27 1.05-1.44 2.95-0.38 4.21 1.06 1.28 2.95 1.45 4.22 0.39v-0.01zm-12 8.41c1.44-0.83 1.93-2.67 1.1-4.1-0.83-1.44-2.66-1.93-4.1-1.1-1.43 0.83-1.92 2.66-1.09 4.09 0.82 1.44 2.66 1.93 4.09 1.11zm-13.27 6.18c1.56-0.57 2.36-2.3 1.79-3.85-0.57-1.56-2.29-2.36-3.85-1.79-1.55 0.57-2.35 2.29-1.78 3.85 0.56 1.55 2.29 2.36 3.84 1.79zm-14.14 3.78c1.64-0.28 2.72-1.84 2.43-3.48-0.29-1.62-1.84-2.71-3.48-2.42-1.63 0.29-2.71 1.85-2.42 3.48s1.84 2.72 3.47 2.42zm-14.59 1.29c1.66 0 3-1.35 3-3 0-1.66-1.34-3-3-3-1.65 0-3 1.34-3 3 0 1.65 1.35 3 3 3zm-14.59-1.29c1.64 0.29 3.2-0.79 3.49-2.42 0.28-1.64-0.81-3.19-2.44-3.48s-3.18 0.8-3.48 2.42c-0.28 1.64 0.8 3.2 2.43 3.48zm-14.13-3.78c1.55 0.56 3.28-0.24 3.84-1.8 0.57-1.55-0.23-3.27-1.79-3.84s-3.27 0.23-3.85 1.78c-0.56 1.56 0.24 3.29 1.79 3.86h0.01zm-13.28-6.18c1.44 0.82 3.28 0.33 4.1-1.11 0.83-1.43 0.34-3.26-1.1-4.09-1.43-0.83-3.27-0.34-4.09 1.09-0.83 1.44-0.34 3.27 1.09 4.1v0.01zm-12-8.41c1.28 1.07 3.17 0.9 4.23-0.37 1.07-1.27 0.9-3.16-0.37-4.22-1.27-1.07-3.16-0.9-4.22 0.37-1.07 1.26-0.91 3.16 0.36 4.22zm-10.34-10.34c1.06 1.27 2.95 1.43 4.22 0.37s1.44-2.96 0.38-4.23c-1.06-1.26-2.95-1.43-4.22-0.37-1.28 1.06-1.45 2.95-0.39 4.22 0 0 0.01 0 0.01 0.01zm-8.41-12c0.84 1.43 2.67 1.92 4.11 1.09 1.43-0.82 1.92-2.66 1.09-4.09-0.82-1.44-2.66-1.93-4.09-1.11-1.44 0.83-1.93 2.67-1.11 4.1v0.01zm-6.18-13.27c0.57 1.55 2.3 2.35 3.86 1.78 1.55-0.57 2.35-2.29 1.78-3.85-0.57-1.55-2.29-2.35-3.84-1.78-1.56 0.56-2.36 2.28-1.8 3.84v0.01zm-3.78-14.14c0.29 1.62 1.84 2.71 3.48 2.42 1.63-0.29 2.71-1.85 2.42-3.47-0.29-1.64-1.84-2.72-3.47-2.43-1.64 0.28-2.72 1.84-2.43 3.48zm-1.29-14.59c0 1.65 1.35 3 3 3 1.66 0 3-1.35 3-3 0-1.66-1.34-3-3-3-1.65 0-3 1.34-3 3zm1.29-14.59c-0.29 1.63 0.8 3.18 2.43 3.47s3.19-0.79 3.48-2.43c0.28-1.63-0.8-3.18-2.43-3.47s-3.18 0.8-3.47 2.43zm3.78-14.14c-0.56 1.55 0.24 3.27 1.8 3.84 1.55 0.57 3.27-0.23 3.84-1.79 0.57-1.55-0.23-3.27-1.78-3.84-1.56-0.57-3.28 0.23-3.85 1.78 0 0 0 0.01-0.01 0.01zm6.18-13.27c-0.82 1.43-0.33 3.27 1.11 4.09 1.43 0.83 3.27 0.34 4.09-1.1 0.83-1.43 0.34-3.27-1.09-4.1-1.44-0.82-3.27-0.33-4.1 1.1 0 0 0 0.01-0.01 0.01zm8.41-12c-1.07 1.27-0.9 3.16 0.37 4.22 1.27 1.07 3.16 0.9 4.22-0.37 1.07-1.27 0.9-3.16-0.36-4.23-1.27-1.06-3.16-0.9-4.23 0.37v0.01zm10.34-10.36c-1.27 1.07-1.43 2.96-0.37 4.23 1.07 1.27 2.96 1.44 4.23 0.38 1.27-1.07 1.43-2.95 0.37-4.22-1.05-1.28-2.94-1.45-4.22-0.39h-0.01zm12-8.39c-1.43 0.82-1.92 2.66-1.09 4.09 0.83 1.44 2.66 1.93 4.1 1.1 1.43-0.83 1.92-2.66 1.1-4.09-0.83-1.44-2.66-1.93-4.1-1.11 0 0.01 0 0.01-0.01 0.01zm13.28-6.18c-1.56 0.57-2.36 2.29-1.79 3.84 0.57 1.56 2.29 2.36 3.85 1.79 1.55-0.57 2.35-2.29 1.79-3.84-0.57-1.56-2.29-2.36-3.85-1.8v0.01zm14.13-3.79c-1.62 0.29-2.71 1.84-2.42 3.48 0.29 1.63 1.85 2.71 3.48 2.42s2.71-1.84 2.43-3.47c-0.29-1.64-1.85-2.73-3.48-2.43h-0.01zm14.59-1.28c-1.65 0-3 1.34-3 3 0 1.65 1.35 3 3 3 1.66 0 3-1.35 3-3 0-1.66-1.34-3-3-3zm-0.71-147.75c0.42-0.33203 1.01-0.33203 1.44 0 3 2.3203 2.5 19.219 1.45 57.09 0 0-0.78 28.23-1.45 54.784-0.35 14-0.59 25.42-0.73 32.88-0.13-7.46-0.36-18.9-0.71-32.88-0.24-9.52-0.62-24.612-1.45-54.772-1.06-37.871-1.59-54.782 1.45-57.102" fill="#f79c25"/>
  </g>
 </g>
</svg>